<svg xmlns="http://www.w3.org/2000/svg" viewBox="0 0 24 24" fill="none">
  <path d="M1.285 8.815a1.287 1.287 0 0 0 0 1.838l4.3 4.3a1.285 1.285 0 0 0 1.838 0l4.3-4.3a1.287 1.287 0 0 0 0-1.838l-4.3-4.3a1.285 1.285 0 0 0-1.838 0l-4.3 4.3Z" fill="#1868DB"/>
  <path d="M7.577 13.115a1.287 1.287 0 0 0 0 1.838l4.3 4.3a1.285 1.285 0 0 0 1.838 0l4.3-4.3a1.287 1.287 0 0 0 0-1.838l-4.3-4.3a1.285 1.285 0 0 0-1.838 0l-4.3 4.3Z" fill="#1868DB" opacity=".6"/>
  <path d="M13.87 8.815a1.287 1.287 0 0 0 0 1.838l4.3 4.3a1.285 1.285 0 0 0 1.838 0l2.707-2.707a1.287 1.287 0 0 0 0-1.838l-4.3-4.3a1.285 1.285 0 0 0-1.838 0L13.87 8.815Z" fill="#1868DB" opacity=".3"/>
</svg>
